P2
75 75
255
50 42 42 42 42 42 42 42 42 42 42 42 42 42 42 42 42 42 42 42 42 42 42 42 42 42 42 42 42 42 42 42 42 42 42 42 42 42 42 42 42 42 42 42 42 42 42 42 42 42 42 42 42 42 42 42 42 42 42 42 42 42 42 42 42 42 42 42 42 42 42 42 42 42 50 
40 33 33 33 33 33 33 33 33 33 33 33 33 33 33 33 33 33 33 33 33 33 33 33 33 33 33 33 33 33 33 32 32 32 32 32 32 32 32 32 32 32 32 33 33 33 33 33 33 33 33 33 33 33 33 33 33 33 33 33 33 33 33 33 33 33 33 33 33 33 33 33 33 33 40 
42 33 33 33 33 33 33 33 33 33 33 33 33 33 33 33 33 33 33 33 33 33 33 33 33 33 33 32 27 25 28 32 39 44 46 45 45 45 45 46 45 42 36 31 26 26 30 33 33 33 33 33 33 33 33 33 33 33 33 33 33 33 33 33 33 33 33 33 33 33 33 33 33 33 42 
42 33 33 33 33 33 33 33 33 33 33 33 33 33 33 33 33 33 33 33 33 33 33 33 33 28 20 30 61 78 89 138 153 155 142 128 121 121 125 135 146 154 147 104 77 73 44 22 23 32 33 33 33 33 33 33 33 33 33 33 33 33 33 33 33 33 33 33 33 33 33 33 33 33 42 
42 33 33 33 33 33 33 33 33 33 33 33 33 33 33 33 33 33 33 33 33 33 32 29 23 58 112 120 167 132 80 86 66 70 83 97 107 110 108 100 89 80 86 70 98 160 129 112 92 33 25 32 33 33 33 33 33 33 33 33 33 33 33 33 33 33 33 33 33 33 33 33 33 33 42 
42 33 33 33 33 33 33 33 33 33 33 33 33 33 33 33 33 33 33 33 29 28 41 79 143 142 124 45 37 34 95 161 205 221 234 243 247 247 247 241 232 218 202 160 94 46 36 77 131 128 117 44 31 26 33 33 33 33 33 33 33 33 33 33 33 33 33 33 33 33 33 33 33 33 42 
42 33 33 33 33 33 33 33 33 33 33 33 33 33 33 33 33 33 33 22 47 83 140 94 69 3 14 69 173 253 239 215 171 122 87 67 58 54 58 68 89 124 173 216 239 250 169 64 15 28 50 149 126 66 23 29 34 33 33 33 33 33 33 33 33 33 33 33 33 33 33 33 33 33 42 
42 33 33 33 33 33 33 33 33 33 33 33 33 33 33 33 33 30 27 91 117 107 24 17 1 85 193 255 209 128 65 35 30 39 50 59 64 65 64 58 50 38 29 35 68 131 212 255 188 78 0 27 100 112 115 50 24 33 33 33 33 33 33 33 33 33 33 33 33 33 33 33 33 33 42 
42 33 33 33 33 33 33 33 33 33 33 33 33 33 33 31 28 48 127 123 42 26 23 50 179 253 210 92 34 34 53 72 80 82 81 79 79 78 79 79 81 82 80 71 53 33 38 99 217 252 172 37 12 13 81 122 95 33 28 34 33 33 33 33 33 33 33 33 33 33 33 33 33 33 42 
42 33 33 33 33 33 33 33 33 33 33 33 33 33 30 29 87 150 38 27 51 31 93 245 235 113 25 41 70 78 79 77 76 75 75 75 76 76 76 75 75 75 76 78 85 82 50 10 14 118 239 239 87 24 22 50 129 115 44 23 33 33 33 33 33 33 33 33 33 33 33 33 33 33 42 
42 33 33 33 33 33 33 33 33 33 33 33 33 31 29 118 100 41 39 72 32 128 255 185 47 32 74 81 76 76 76 76 76 76 76 76 76 76 76 76 76 76 80 79 54 26 56 129 35 23 54 190 254 122 32 51 18 65 169 59 26 33 33 33 33 33 33 33 33 33 33 33 33 33 42 
42 33 33 33 33 33 33 33 33 33 33 33 28 38 142 69 9 57 79 28 149 255 143 22 52 82 78 75 76 76 76 76 76 76 76 76 76 76 76 76 76 76 59 40 74 159 233 152 34 88 51 24 150 255 142 31 67 32 75 155 83 28 31 33 33 33 33 33 33 33 33 33 33 33 42 
42 33 33 33 33 33 33 33 33 33 33 27 43 154 113 14 72 83 24 147 255 121 20 68 81 76 75 76 76 76 76 76 76 76 76 76 76 76 76 77 68 32 9 75 183 246 236 40 62 81 86 71 21 129 255 137 26 79 37 43 135 97 27 31 33 33 33 33 33 33 33 33 33 33 42 
42 33 33 33 33 33 33 33 33 33 31 44 153 96 20 77 86 30 123 255 123 19 75 79 75 76 76 76 76 76 76 76 76 76 76 76 76 76 76 78 77 56 14 12 97 226 126 36 87 81 78 69 70 20 132 255 115 32 86 46 28 119 98 28 33 33 33 33 33 33 33 33 33 33 42 
42 33 33 33 33 33 33 33 33 28 36 156 100 21 78 89 44 82 255 148 16 73 79 75 76 76 76 76 76 76 76 76 76 76 76 75 77 79 77 59 32 40 116 205 251 213 15 32 45 34 14 38 79 75 17 158 253 75 46 89 48 26 130 90 26 33 33 33 33 33 33 33 33 33 42 
42 33 33 33 33 33 33 33 30 31 131 109 22 78 86 65 42 229 202 23 65 80 75 76 76 76 76 76 76 76 76 76 76 75 77 81 76 49 28 48 128 224 255 255 255 137 63 131 137 34 35 79 79 83 65 25 211 223 37 65 85 47 38 153 68 23 33 33 33 33 33 33 33 33 42 
42 33 33 33 33 33 33 33 30 114 73 8 76 81 80 32 153 247 53 52 81 75 76 76 76 76 76 76 76 76 76 76 76 76 74 57 41 86 163 239 255 255 255 255 253 237 255 207 61 48 84 80 79 79 86 50 60 252 144 31 77 81 38 66 173 48 27 33 33 33 33 33 33 33 42 
42 33 33 33 33 33 34 25 85 124 9 68 83 81 56 66 252 126 25 82 76 76 76 76 76 76 76 76 76 76 76 76 77 74 43 8 26 126 187 216 244 248 251 255 255 255 162 28 49 85 79 79 79 79 79 85 24 136 250 59 56 78 80 31 51 127 37 32 33 33 33 33 33 33 42 
42 33 33 33 33 33 28 46 143 50 50 86 79 83 28 184 221 31 67 77 76 76 76 76 76 76 76 76 76 76 76 76 76 76 73 70 60 42 34 31 27 73 196 255 248 124 22 64 85 79 79 79 79 79 79 80 67 34 230 172 29 80 78 74 12 112 111 21 34 33 33 33 33 33 42 
42 33 33 33 33 32 28 124 57 23 85 79 83 60 66 255 115 33 79 76 76 76 76 76 76 76 76 76 76 76 76 76 76 76 76 77 81 85 58 25 72 167 245 234 94 27 78 84 79 79 79 79 79 79 79 79 82 33 123 254 59 61 79 81 59 36 121 63 27 33 33 33 33 33 42 
42 33 33 33 33 26 74 146 25 72 80 78 84 33 158 230 41 63 78 76 76 76 76 76 76 76 76 76 76 76 76 76 75 76 79 78 58 26 58 168 246 255 211 56 1 45 58 62 70 80 82 79 79 79 79 79 81 62 47 235 147 34 82 75 82 28 60 134 28 32 33 33 33 33 42 
42 33 33 33 32 35 138 34 47 84 79 80 71 41 223 166 26 81 76 76 76 76 76 76 76 76 76 76 76 76 76 75 79 82 60 30 51 151 246 255 255 255 215 151 133 105 79 62 58 35 32 65 80 79 79 79 79 83 27 176 219 38 70 77 77 71 31 152 74 26 33 33 33 33 42 
42 33 33 33 30 75 103 29 77 81 79 82 53 84 246 87 47 81 75 76 76 76 76 76 76 76 76 76 76 76 76 81 69 30 46 139 235 255 255 255 255 255 255 255 255 255 255 255 150 27 38 75 79 79 79 79 79 85 46 96 242 76 53 79 76 80 41 58 143 36 33 33 33 33 42 
42 33 33 33 24 147 45 47 86 79 79 81 41 135 248 40 70 77 76 76 76 76 76 76 76 76 76 76 77 80 78 50 47 140 232 255 255 254 254 255 255 255 255 255 255 255 229 109 35 66 86 80 79 79 79 79 79 81 70 46 252 126 41 78 76 77 72 27 131 66 30 33 33 33 42 
42 33 33 25 82 104 21 79 80 79 79 79 38 176 202 28 80 76 76 76 76 76 76 76 76 76 76 76 73 52 15 50 154 189 174 158 129 158 244 255 255 255 255 255 254 171 46 33 74 82 79 79 79 79 79 79 79 79 81 29 213 168 36 76 76 75 83 37 89 144 21 34 33 33 42 
42 33 33 23 114 94 41 84 78 79 79 75 42 211 151 33 80 75 76 76 76 76 76 76 76 76 76 74 50 26 29 45 40 34 26 1 61 194 255 255 255 255 255 221 97 24 60 86 79 79 79 79 79 79 79 79 79 78 84 33 163 201 40 73 76 75 78 70 31 156 50 29 33 33 42 
42 33 28 53 157 39 66 80 79 79 79 70 51 237 118 42 80 75 76 76 76 76 76 76 76 76 76 75 73 76 79 76 80 56 29 129 244 255 255 255 255 255 162 47 38 81 87 82 82 82 79 79 79 79 79 79 79 78 83 41 128 229 47 69 76 76 75 81 30 130 112 20 33 33 42 
42 33 25 77 135 31 78 79 79 79 79 67 60 253 98 47 79 75 76 76 76 76 76 76 76 76 76 76 77 76 81 78 34 45 181 255 255 255 255 252 204 80 1 35 55 51 48 61 64 60 71 79 79 79 79 79 79 78 82 47 107 246 54 65 76 76 75 79 52 59 124 30 32 33 42 
42 32 31 111 84 40 83 79 79 79 79 64 67 255 91 52 78 75 76 76 76 76 76 76 76 76 76 76 76 81 67 24 90 222 255 255 255 255 255 218 95 70 81 85 83 90 103 45 3 35 72 80 79 79 79 79 79 79 81 50 97 254 59 63 76 76 76 76 68 41 169 65 27 33 42 
42 32 40 168 63 56 82 79 79 79 79 63 72 255 90 52 78 75 76 76 76 76 76 76 76 76 75 78 79 46 27 146 250 255 255 255 255 255 255 242 236 248 248 250 255 242 137 38 55 81 81 79 79 79 79 79 79 79 81 50 95 254 60 63 76 76 76 76 77 30 128 80 25 33 42 
42 32 44 143 33 73 81 79 79 79 79 62 69 255 92 50 78 75 76 76 76 76 76 76 76 75 80 72 29 59 197 255 255 255 255 255 255 255 255 255 255 255 255 255 185 61 34 74 84 79 79 79 79 79 79 79 79 78 82 49 102 251 58 64 76 76 76 76 79 41 72 93 31 33 42 
42 31 69 125 28 83 79 79 79 79 79 62 59 254 109 44 80 75 76 76 76 76 76 76 76 80 66 39 125 249 255 255 248 235 254 255 255 255 255 255 255 255 219 103 25 54 84 80 79 79 79 79 79 79 79 79 79 78 82 43 118 237 50 67 76 76 76 76 79 48 81 153 36 32 42 
42 27 115 131 31 85 79 79 79 79 79 65 48 244 139 37 80 75 76 76 76 76 76 76 77 52 8 51 127 106 92 67 54 172 255 255 255 255 255 255 251 150 40 36 75 84 79 79 79 79 79 79 79 79 79 79 79 78 84 36 146 214 42 71 76 76 76 76 79 61 48 166 43 32 42 
42 25 143 96 42 85 79 79 79 79 79 67 36 224 183 31 80 75 76 76 76 76 76 77 67 41 43 49 43 51 28 8 144 249 255 255 255 255 255 205 80 30 68 88 86 84 84 80 79 79 79 79 79 79 79 79 79 79 84 30 190 183 37 74 76 76 76 76 78 70 35 149 45 32 42 
42 24 152 75 53 85 79 79 79 79 79 71 26 196 225 37 75 76 76 76 76 76 76 76 76 80 80 80 86 52 35 180 255 255 255 255 255 225 114 3 1 37 36 39 53 52 52 66 79 79 79 79 79 79 79 79 79 80 75 36 240 145 39 77 76 76 76 76 77 75 31 109 47 32 42 
42 25 148 60 60 83 79 79 79 79 79 75 19 155 241 65 58 80 75 76 76 76 76 76 76 75 77 81 39 46 202 255 255 255 255 255 255 216 154 158 159 157 161 127 32 5 41 71 79 79 79 79 79 79 79 79 79 84 57 71 251 96 48 79 76 76 76 76 76 79 27 144 64 31 42 
42 25 141 52 64 82 79 79 79 79 79 80 14 121 227 121 32 83 76 76 76 76 76 76 75 78 78 29 66 222 255 255 255 255 255 255 255 255 255 255 255 235 158 61 42 71 82 80 79 79 79 79 79 79 79 79 79 85 32 141 232 51 64 78 76 76 76 76 76 80 26 157 80 30 42 
42 25 137 50 66 82 79 79 79 79 79 83 21 90 199 173 28 73 77 76 76 76 76 75 78 77 38 101 247 255 255 250 255 255 255 255 255 255 255 229 139 51 28 64 85 81 79 79 79 79 79 79 79 79 79 79 80 73 32 213 185 31 78 76 76 76 76 76 76 80 27 150 82 29 42 
42 25 137 50 66 82 79 79 79 79 79 84 38 39 186 183 77 46 80 76 76 76 76 77 72 27 14 102 100 81 67 186 255 255 255 255 255 232 132 45 31 60 84 83 78 79 79 79 79 79 79 79 79 79 79 79 83 44 85 254 91 48 82 75 76 76 76 76 76 80 27 150 82 29 42 
42 25 142 54 64 82 79 79 79 79 79 83 58 0 164 162 152 25 76 76 76 76 76 77 65 48 54 49 51 28 44 235 255 255 250 218 139 49 35 66 81 82 79 79 79 79 79 79 79 79 79 79 79 79 79 79 78 25 186 222 31 76 77 76 76 76 76 76 76 80 26 161 78 30 42 
42 24 150 63 58 84 79 79 79 79 79 81 72 5 88 167 164 89 45 80 75 76 76 76 77 80 80 80 82 25 172 255 255 255 204 63 0 34 70 73 78 79 79 79 79 79 79 79 79 79 79 79 79 79 78 84 43 79 255 106 39 81 75 76 76 76 76 76 77 78 29 129 59 31 42 
42 24 152 79 50 85 79 79 79 79 79 79 81 27 9 171 126 187 37 71 79 75 76 76 76 75 75 82 43 75 253 255 255 255 247 217 182 55 7 42 77 80 79 79 79 79 79 79 79 79 79 79 79 79 83 71 25 214 221 36 66 76 76 76 76 76 76 76 77 74 32 117 45 32 42 
42 25 138 103 40 85 79 79 79 79 79 79 84 47 2 100 174 152 133 22 83 76 76 76 76 76 77 72 25 193 255 255 255 255 222 147 63 42 65 79 79 79 79 79 79 79 79 79 79 79 79 79 79 80 82 20 139 255 136 28 78 76 76 76 76 76 76 76 78 68 37 156 45 32 42 
42 28 104 138 29 85 79 79 79 79 79 79 83 63 24 90 189 117 177 37 38 82 76 76 76 76 80 36 98 250 255 251 198 113 42 30 62 83 81 79 79 79 79 79 79 79 79 79 79 79 79 79 79 84 31 87 249 241 66 50 79 76 76 76 76 76 76 76 79 58 55 166 42 32 42 
42 31 57 119 28 81 79 79 79 79 79 79 80 78 23 100 153 164 106 155 34 44 82 77 75 76 68 31 207 255 255 150 26 24 67 85 83 79 78 79 79 79 79 79 79 79 79 79 79 79 79 80 84 37 59 240 239 195 30 72 77 76 76 76 76 76 76 76 80 45 83 142 34 32 42 
42 32 44 156 37 70 81 79 79 79 79 79 79 84 26 58 131 190 65 161 181 56 39 82 77 82 30 114 255 255 255 200 58 8 62 81 79 79 79 79 79 79 79 79 79 79 79 79 79 78 80 85 37 53 225 241 229 140 29 82 76 76 76 76 76 76 76 76 79 39 76 82 29 33 42 
42 32 38 160 73 51 83 79 79 79 79 79 78 84 42 33 112 182 61 132 222 222 63 30 81 66 47 239 240 169 94 40 40 63 76 79 79 79 79 79 79 79 79 79 79 79 79 79 78 81 80 29 68 223 255 199 229 83 48 81 75 76 76 76 76 76 76 76 75 30 146 81 24 33 42 
42 33 29 96 88 37 83 79 79 79 79 79 78 83 48 25 106 139 78 143 220 255 236 95 25 18 107 135 52 27 39 66 82 84 79 79 79 79 79 79 79 79 79 79 79 79 79 81 83 61 21 101 239 255 237 137 183 54 65 78 76 76 76 76 76 76 76 76 65 45 165 56 28 33 42 
42 33 25 75 154 32 76 79 79 79 79 79 78 84 47 25 115 87 116 115 248 255 255 255 152 32 0 26 67 82 83 81 79 78 79 79 79 79 79 79 79 79 79 78 79 82 85 68 33 43 158 255 255 255 211 78 145 42 73 77 76 76 76 76 76 76 75 79 47 70 117 25 32 33 42 
42 33 30 43 141 47 61 81 78 79 79 79 78 84 40 48 120 81 127 47 246 255 255 255 255 220 111 39 37 66 83 83 80 79 79 79 79 79 79 79 79 79 80 83 83 64 34 36 114 222 255 255 255 255 191 73 139 40 74 77 76 76 76 76 76 76 76 80 27 147 103 21 33 33 42 
42 33 33 20 113 105 31 85 78 79 79 79 78 84 35 80 128 63 139 24 118 255 255 255 255 255 255 211 122 47 27 41 59 69 76 82 83 83 82 78 74 69 58 41 28 52 129 216 255 255 255 255 255 255 176 89 138 39 72 77 76 76 76 76 76 75 79 63 42 154 35 32 33 33 42 
42 33 33 28 62 110 29 74 81 79 79 79 78 84 38 95 130 102 45 90 6 131 247 255 255 255 255 255 255 252 182 110 66 45 33 23 41 41 28 32 38 47 80 130 200 252 255 255 255 255 255 255 255 255 127 116 136 32 74 77 76 76 76 76 76 76 82 30 98 131 23 33 33 33 42 
42 33 33 33 23 141 46 39 86 79 79 79 79 82 56 64 143 140 78 7 10 0 78 121 117 112 114 128 152 185 244 255 255 224 184 113 7 14 112 167 199 237 220 174 137 106 95 107 147 212 255 255 255 188 100 158 120 24 79 76 76 76 76 76 76 79 66 34 145 51 31 33 33 33 42 
42 33 33 33 31 57 133 23 72 82 79 79 79 79 81 31 115 142 134 54 0 1 0 0 0 0 0 0 0 10 43 131 234 255 255 255 111 123 255 255 233 106 30 0 0 0 0 0 0 27 76 119 103 21 95 166 44 46 79 75 76 76 76 76 75 81 33 77 125 32 33 33 33 33 42 
42 33 33 33 32 33 119 61 38 84 78 79 79 79 81 74 27 94 113 69 4 0 1 0 1 4 5 4 2 1 0 0 28 130 235 255 207 207 255 210 43 0 0 1 1 0 0 0 0 0 0 0 0 0 30 31 37 79 76 76 76 76 76 75 78 64 38 162 63 26 33 33 33 33 42 
42 33 33 33 33 26 61 150 29 63 82 78 79 79 79 81 76 30 29 23 32 121 33 28 7 3 1 0 0 0 0 0 0 3 65 231 253 252 255 142 0 0 0 0 4 18 36 56 76 96 113 110 33 3 33 58 80 77 76 76 76 76 76 76 80 19 66 119 22 33 33 33 33 33 42 
42 33 33 33 33 33 23 112 78 16 81 80 79 79 79 78 81 86 51 1 12 60 72 103 109 82 39 143 165 159 156 154 175 184 43 204 255 255 255 236 189 168 169 181 198 214 224 236 247 165 60 39 24 27 80 80 76 76 76 76 76 76 76 83 48 55 139 41 30 33 33 33 33 33 42 
42 33 33 33 33 33 32 28 145 72 38 85 79 79 79 79 79 83 65 1 59 22 12 20 30 36 119 255 255 255 255 255 255 236 105 227 255 255 255 255 255 255 255 255 255 255 255 255 255 244 59 66 130 60 72 75 76 76 76 76 76 75 80 66 4 125 86 25 34 33 33 33 33 33 42 
42 33 33 33 33 33 33 30 62 131 10 56 84 79 79 79 79 81 72 3 168 105 79 84 86 123 255 255 255 255 255 255 255 245 180 185 255 241 234 255 255 255 255 255 255 255 255 255 255 251 118 186 149 58 72 76 76 76 76 76 75 77 75 26 96 112 32 33 33 33 33 33 33 33 42 
42 33 33 33 33 33 33 33 26 95 105 9 64 84 78 79 79 79 84 29 84 143 100 112 95 165 255 255 255 255 255 255 255 255 233 64 236 138 185 255 255 255 255 255 255 255 255 255 255 221 151 181 106 56 76 76 76 76 76 75 77 79 25 96 158 32 29 33 33 33 33 33 33 33 42 
42 33 33 33 33 33 33 33 32 22 109 147 22 67 85 79 79 79 81 76 29 70 34 63 15 70 213 253 255 255 255 255 255 255 199 27 164 55 192 255 255 255 255 255 255 255 255 255 255 147 147 71 29 70 78 76 76 76 76 77 82 33 59 150 49 27 33 33 33 33 33 33 33 33 42 
42 33 33 33 33 33 33 33 33 32 26 126 133 19 66 84 79 79 78 81 78 42 26 13 13 6 26 85 199 255 255 255 255 255 155 6 128 22 140 255 255 255 255 255 176 110 157 157 116 22 36 2 48 81 76 76 76 75 77 79 34 44 138 66 28 33 33 33 33 33 33 33 33 33 42 
42 33 33 33 33 33 33 33 33 33 32 30 130 133 22 64 84 79 79 78 80 85 81 76 73 78 23 27 74 89 124 232 255 255 150 0 143 24 35 246 255 254 194 83 9 63 18 3 2 6 15 51 80 76 75 76 75 79 77 30 50 133 74 25 33 33 33 33 33 33 33 33 33 33 42 
42 33 33 33 33 33 33 33 33 33 33 29 30 126 147 7 56 85 80 78 79 79 79 81 81 86 45 108 121 97 72 179 255 255 238 90 200 92 115 253 255 251 209 186 65 154 38 67 71 72 77 80 76 75 76 75 81 71 23 75 142 71 25 32 33 33 33 33 33 33 33 33 33 33 42 
42 33 33 33 33 33 33 33 33 33 33 33 31 27 108 104 12 38 80 82 78 79 79 79 79 80 63 70 105 162 143 130 255 255 255 242 252 246 255 255 255 255 255 240 61 40 55 82 77 77 76 76 76 75 77 82 56 24 116 148 57 27 33 33 33 33 33 33 33 33 33 33 33 33 42 
42 33 33 33 33 33 33 33 33 33 33 33 33 33 22 93 124 73 18 63 84 81 79 79 79 79 81 28 65 205 84 72 254 255 255 255 255 255 255 255 255 255 152 112 67 22 81 76 76 76 76 75 77 80 76 39 28 90 146 36 27 33 33 33 33 33 33 33 33 33 33 33 33 33 42 
42 33 33 33 33 33 33 33 33 33 33 33 33 33 32 27 60 140 75 32 39 70 86 81 78 78 84 42 71 214 36 135 203 153 159 207 253 252 243 255 223 181 71 120 134 38 81 75 76 75 76 81 77 55 11 72 149 98 29 28 33 33 33 33 33 33 33 33 33 33 33 33 33 33 42 
42 33 33 33 33 33 33 33 33 33 33 33 33 33 33 33 30 29 104 143 61 25 39 73 85 81 83 54 50 159 57 219 71 116 45 48 130 147 121 153 79 56 188 170 104 44 80 75 76 80 80 52 27 18 117 113 62 25 33 33 33 33 33 33 33 33 33 33 33 33 33 33 33 33 42 
42 33 33 33 33 33 33 33 33 33 33 33 33 33 33 33 33 32 23 59 111 128 48 31 31 61 77 83 43 17 39 206 106 235 109 178 64 133 192 88 161 99 197 42 32 74 81 77 68 46 18 61 132 129 80 37 25 33 33 33 33 33 33 33 33 33 33 33 33 33 33 33 33 33 42 
42 33 33 33 33 33 33 33 33 33 33 33 33 33 33 33 33 33 33 27 33 54 135 105 106 49 33 39 52 53 46 124 120 223 110 237 98 191 255 145 230 117 136 12 62 60 43 33 34 75 80 139 94 37 26 31 33 33 33 33 33 33 33 33 33 33 33 33 33 33 33 33 33 33 42 
42 33 33 33 33 33 33 33 33 33 33 33 33 33 33 33 33 33 33 33 33 31 23 58 110 137 154 89 74 41 22 6 30 93 21 150 53 117 153 66 141 26 12 17 37 58 70 121 149 107 94 25 28 32 33 33 33 33 33 33 33 33 33 33 33 33 33 33 33 33 33 33 33 33 42 
42 33 33 33 33 33 33 33 33 33 33 33 33 33 33 33 33 33 33 33 33 33 33 28 20 40 73 93 158 153 121 140 101 68 55 47 40 39 38 46 63 91 127 116 130 169 115 77 62 27 23 33 33 33 33 33 33 33 33 33 33 33 33 33 33 33 33 33 33 33 33 33 33 33 42 
42 33 33 33 33 33 33 33 33 33 33 33 33 33 33 33 33 33 33 33 33 33 33 33 33 30 25 29 37 43 58 102 135 151 150 139 135 133 136 145 147 147 121 74 45 41 33 26 27 32 33 33 33 33 33 33 33 33 33 33 33 33 33 33 33 33 33 33 33 33 33 33 33 33 42 
40 33 33 33 33 33 33 33 33 33 33 33 33 33 33 33 33 33 33 33 33 33 33 33 33 33 33 33 32 32 31 28 26 24 25 25 26 26 25 25 24 25 27 30 32 32 33 33 33 33 33 33 33 33 33 33 33 33 33 33 33 33 33 33 33 33 33 33 33 33 33 33 33 33 40 
50 42 42 42 42 42 42 42 42 42 42 42 42 42 42 42 42 42 42 42 42 42 42 42 42 42 42 42 42 42 42 42 42 42 42 42 42 42 42 42 42 42 42 42 42 42 42 42 42 42 42 42 42 42 42 42 42 42 42 42 42 42 42 42 42 42 42 42 42 42 42 42 42 42 50 
