P2
234 30
255
0 0 0 0 0 0 0 0 0 0 0 0 0 0 0 0 0 0 0 0 0 0 0 0 0 0 0 0 0 0 0 0 0 0 0 0 0 0 0 0 0 0 0 0 0 0 0 0 0 0 0 0 0 0 0 0 0 0 0 0 0 0 0 0 0 0 0 0 0 0 0 0 0 0 0 0 0 0 0 0 0 0 0 0 0 0 0 0 0 0 0 0 0 0 0 0 0 0 0 0 0 0 0 0 0 0 0 0 0 0 0 0 0 0 0 0 0 0 0 0 0 0 0 0 0 0 0 0 0 0 0 0 0 0 0 0 0 0 0 0 0 0 0 0 0 0 0 0 0 0 0 0 0 0 0 0 0 0 0 0 0 0 0 0 0 0 0 0 0 0 0 0 0 0 0 0 0 0 0 0 0 0 0 0 0 0 0 0 0 0 17 0 0 0 0 17 0 0 0 0 0 0 0 0 0 0 0 0 0 0 0 0 0 0 0 0 0 0 0 0 0 0 0 0 0 0 0 0 0 0 0 0 0 0 
0 0 0 0 0 0 0 0 0 0 0 0 0 0 0 0 0 0 0 0 0 0 0 0 0 0 0 0 0 0 0 0 0 0 0 0 0 0 0 0 0 0 0 0 0 0 0 0 0 0 0 0 0 0 0 0 0 0 0 0 0 0 0 0 0 0 0 0 0 0 0 0 0 0 0 0 0 0 0 0 0 0 0 0 0 0 0 0 0 0 0 0 0 0 0 0 0 0 0 0 0 0 0 0 0 0 0 0 0 0 0 0 0 0 0 0 0 0 0 0 0 0 0 0 0 0 0 0 0 0 0 0 0 0 0 0 0 0 0 0 0 0 0 0 0 0 0 0 0 0 0 0 0 0 0 0 0 0 0 0 0 0 0 0 0 0 0 0 0 0 0 0 0 0 0 0 0 0 0 0 0 0 0 0 0 0 0 0 19 247 254 92 0 2 225 255 143 0 0 0 0 0 0 0 0 0 116 188 100 0 0 0 0 0 0 0 0 0 0 0 0 0 2 151 203 197 197 82 0 0 0 0 0 0 
0 0 0 0 0 0 0 0 0 0 0 0 0 0 0 0 0 0 0 0 0 0 0 0 0 0 0 0 0 0 0 0 0 0 0 0 0 0 0 0 0 0 0 0 0 0 0 0 0 0 0 0 0 0 0 0 0 0 0 0 0 0 0 0 0 0 0 0 0 0 0 0 0 0 0 0 0 0 0 0 0 0 0 0 0 0 0 0 0 0 0 0 0 0 0 0 0 0 0 0 0 0 0 0 0 0 0 0 0 0 0 0 0 0 0 0 0 0 0 0 0 0 0 0 0 0 0 0 0 0 0 0 0 0 0 0 0 0 0 0 0 0 0 0 0 0 0 0 0 0 0 0 0 0 0 0 0 0 0 0 0 0 0 0 0 0 0 0 0 0 0 0 0 0 0 0 0 0 0 0 0 0 0 0 0 0 0 0 124 255 255 129 0 81 255 255 172 0 0 0 0 0 0 0 0 4 245 255 209 0 0 0 0 0 0 0 0 0 0 0 0 40 243 255 255 255 255 255 149 0 0 0 0 0 
0 0 0 0 0 0 0 0 0 0 0 0 0 0 0 0 0 0 0 0 0 0 0 0 0 0 0 0 0 0 0 0 0 0 0 0 0 0 0 0 0 0 0 0 0 0 0 0 0 0 0 0 0 0 0 0 0 0 0 0 0 0 0 0 0 0 0 0 0 0 0 0 0 0 0 0 0 0 0 0 0 0 0 0 0 0 0 0 0 0 0 0 0 0 0 0 0 0 0 0 0 0 0 0 0 0 0 0 0 0 0 0 0 0 0 0 0 0 0 0 0 0 0 0 0 0 0 0 0 0 0 0 0 0 0 0 0 0 0 0 0 0 0 0 0 0 0 0 0 0 0 148 249 250 163 0 0 0 0 0 0 0 0 0 0 0 0 0 0 0 0 0 0 0 0 0 0 0 0 0 0 0 0 0 0 0 0 0 212 255 252 22 0 181 255 254 62 0 0 0 0 0 0 0 12 93 252 255 207 0 0 0 0 0 0 0 0 0 0 0 8 242 255 255 245 237 255 255 254 81 0 0 0 0 
0 0 0 0 0 0 0 0 0 0 0 0 0 0 0 0 0 0 0 0 0 0 0 0 0 0 0 0 0 0 0 0 0 0 0 0 0 0 0 0 0 0 0 0 0 0 0 0 0 0 0 0 0 0 0 0 0 0 0 0 0 0 0 0 0 0 0 0 0 0 0 0 0 0 0 0 0 0 0 0 0 0 0 0 0 0 0 0 0 0 0 0 0 0 0 0 0 0 0 0 0 0 0 0 0 0 0 0 0 0 0 0 0 0 0 0 0 0 0 0 0 0 0 0 0 0 0 0 0 0 0 0 0 0 0 0 0 0 0 0 0 0 0 0 0 0 0 0 0 0 4 241 255 255 247 15 0 0 0 0 0 0 0 0 0 0 0 0 0 167 255 255 177 0 0 0 0 0 0 0 0 0 0 0 0 0 0 42 251 255 202 0 8 247 255 230 2 0 0 0 0 0 17 198 255 255 255 255 255 241 232 254 127 0 0 0 0 0 0 0 188 255 255 209 6 0 169 255 255 185 0 0 0 0 
0 0 0 0 0 0 0 0 0 0 0 0 0 0 0 0 0 0 0 0 0 0 0 0 0 0 0 0 0 0 0 0 0 0 0 0 0 0 0 0 0 0 0 0 0 0 0 0 0 0 0 0 0 0 0 0 0 0 0 0 0 0 0 0 0 0 0 0 0 0 0 0 0 0 0 0 0 0 0 0 0 0 0 0 0 0 0 0 0 0 0 0 0 0 0 0 0 0 0 0 0 0 0 0 0 0 0 0 0 0 0 0 0 0 0 0 0 0 0 0 0 0 0 0 0 0 0 0 0 0 0 0 0 0 0 0 0 0 0 0 0 0 0 0 0 0 0 0 0 0 29 249 255 255 253 48 0 0 0 0 0 0 0 0 0 0 0 0 0 161 255 255 172 0 0 0 0 0 0 0 0 0 0 0 0 0 0 146 255 255 110 0 108 255 255 150 0 0 0 0 0 40 249 255 255 255 255 255 255 255 255 255 203 0 0 0 0 0 0 31 250 255 243 15 0 0 4 241 255 234 10 0 0 0 
0 0 0 0 0 0 0 0 0 0 0 0 0 0 0 0 0 0 0 0 0 0 0 0 0 0 0 0 0 0 0 0 0 0 0 0 0 0 0 0 0 0 0 0 0 0 0 0 0 0 0 0 0 0 0 0 0 0 0 0 0 0 0 0 0 0 0 0 0 0 0 0 0 0 0 0 0 0 0 0 0 0 0 0 0 0 0 0 0 0 0 0 0 0 0 0 0 0 0 0 0 0 0 0 0 0 0 0 0 0 0 0 0 0 0 0 0 0 0 0 0 0 0 0 0 0 0 0 0 0 0 0 0 0 0 0 0 0 0 0 0 0 0 0 0 0 0 0 0 0 2 229 255 255 239 10 0 0 0 0 0 0 0 0 0 0 0 0 0 105 255 255 129 0 0 0 0 0 0 0 0 0 0 0 0 0 2 229 255 247 15 0 200 255 252 46 0 0 0 0 0 206 255 255 255 189 100 95 175 254 255 255 202 0 0 0 0 0 0 115 255 255 136 0 0 0 0 180 255 243 12 0 0 0 
0 0 0 0 0 0 0 0 0 0 0 0 0 0 0 0 0 0 0 0 0 0 0 0 0 0 0 0 0 0 0 0 0 0 0 0 0 0 0 0 0 0 0 0 0 0 0 0 0 0 0 0 0 0 0 0 0 0 0 0 0 0 0 0 0 0 0 0 0 0 0 0 0 0 0 0 0 0 0 0 0 0 0 0 0 0 0 0 0 0 0 0 0 0 0 0 0 0 0 0 0 0 0 0 0 0 0 0 0 0 0 0 0 0 0 0 0 0 0 0 0 0 0 0 0 0 0 0 0 0 0 0 0 0 0 0 0 0 0 0 0 0 0 0 0 0 0 0 0 0 2 229 255 255 243 10 0 0 0 0 0 0 0 0 0 187 243 151 6 98 255 255 122 2 136 235 206 0 0 0 0 0 0 0 0 0 54 254 255 179 0 21 249 255 207 0 0 0 0 0 4 234 255 255 127 0 0 0 0 123 255 255 203 0 0 0 0 0 0 199 255 252 48 0 0 39 69 223 255 239 10 0 0 0 
0 0 0 0 0 0 0 0 0 0 0 0 0 0 0 0 0 0 0 0 0 0 0 0 0 0 0 0 0 0 0 0 0 0 0 0 0 0 0 0 0 0 0 0 0 0 0 0 0 0 0 0 0 0 0 0 0 0 0 0 0 0 0 0 0 0 0 0 0 0 0 0 0 0 0 0 0 0 0 0 0 0 0 0 0 0 0 0 0 0 0 0 0 0 0 0 2 150 209 209 164 6 0 0 0 0 0 0 0 0 0 0 0 0 2 164 215 209 151 2 0 0 0 0 0 0 0 40 113 115 115 115 115 115 115 115 115 115 115 115 115 123 51 0 0 0 0 0 0 0 2 229 255 255 243 10 0 0 0 0 0 0 0 0 21 249 255 255 253 216 255 255 220 247 255 255 252 46 0 0 0 176 239 233 233 233 243 255 255 254 228 242 255 255 254 228 233 228 31 0 29 249 255 254 48 0 0 0 0 2 189 232 90 0 0 0 0 0 4 234 255 234 6 39 216 255 255 255 255 253 51 0 0 0 
0 0 0 0 0 0 0 0 0 0 0 0 0 0 0 0 0 0 0 0 0 0 0 0 0 0 0 0 0 0 0 0 0 0 0 0 0 0 0 0 0 0 0 0 0 0 0 0 0 0 0 0 0 0 0 0 0 0 0 0 0 0 0 0 0 0 0 0 0 0 0 0 0 0 0 0 0 0 0 0 0 0 0 0 0 0 0 0 0 0 0 0 0 0 0 0 213 255 255 255 255 225 6 0 0 0 0 0 0 0 0 0 0 2 229 255 255 255 255 214 2 0 0 0 0 0 2 223 255 255 255 255 255 255 255 255 255 255 255 255 255 255 234 6 0 0 0 0 0 0 2 230 255 255 243 12 0 0 0 0 0 0 0 0 32 251 255 255 255 255 255 255 255 255 255 255 254 62 0 0 4 243 255 255 255 255 255 255 255 255 255 255 255 255 255 255 255 254 65 0 2 230 255 255 202 6 0 0 0 0 0 0 0 0 0 0 0 0 2 229 255 196 10 249 255 255 255 255 255 254 62 0 0 0 
0 0 0 0 0 0 0 0 0 0 0 0 0 0 0 0 0 0 0 0 0 0 0 0 0 0 0 0 0 0 0 0 0 0 0 0 0 0 0 0 0 0 0 0 0 0 0 0 0 0 0 0 0 0 0 0 0 0 0 0 0 0 0 0 0 0 0 0 0 0 0 0 0 0 0 15 128 176 171 132 58 0 0 0 0 0 52 114 22 0 0 0 0 0 0 31 250 255 255 255 255 254 62 0 0 0 0 0 0 0 0 0 0 52 252 255 255 255 255 254 62 0 0 0 0 0 2 223 255 255 255 255 255 255 255 255 255 255 255 255 255 255 234 6 0 0 0 0 0 0 0 206 255 255 219 2 0 0 0 0 0 0 0 0 0 42 121 188 232 255 255 255 255 236 190 126 46 0 0 0 0 110 170 164 163 211 255 255 212 157 194 255 255 230 158 164 169 156 10 0 0 180 255 255 255 249 173 70 0 0 0 0 0 0 0 0 0 0 4 236 255 191 176 255 255 208 15 180 255 254 59 0 0 0 
0 0 0 0 0 0 0 0 0 0 0 0 0 0 0 0 0 0 0 0 0 0 0 0 0 0 0 0 0 0 0 0 0 0 0 0 0 0 0 0 0 0 0 0 0 0 0 0 0 0 0 0 0 0 0 0 0 0 0 0 0 0 0 0 0 0 0 0 0 0 0 0 0 0 142 254 255 255 255 255 255 241 185 126 114 205 255 255 143 0 0 0 0 0 0 31 249 255 255 255 255 254 62 0 0 0 0 0 0 0 0 0 0 52 251 255 255 255 255 254 62 0 0 0 0 0 0 49 129 124 124 124 124 124 124 124 124 124 124 124 124 129 59 0 0 0 0 0 0 0 0 180 255 255 197 0 0 0 0 0 0 0 0 0 0 0 0 0 165 255 255 255 255 177 0 0 0 0 0 0 0 0 0 0 0 166 255 254 73 0 130 255 255 111 0 0 0 0 0 0 0 8 236 255 255 255 255 255 244 180 51 0 0 0 0 0 0 0 42 251 255 191 225 255 234 10 0 180 255 254 59 0 0 0 
0 0 0 0 0 0 0 0 0 0 0 0 0 0 0 0 0 0 0 0 0 0 0 0 0 0 0 0 0 0 0 0 0 0 0 0 0 0 0 0 0 0 0 0 0 0 0 0 0 0 0 0 0 0 0 0 0 0 0 0 0 0 0 0 0 0 0 0 0 0 0 0 0 88 255 255 255 255 255 255 255 255 255 255 255 255 255 255 119 0 0 0 0 0 0 19 248 255 255 255 255 252 19 0 0 0 0 0 0 0 0 0 0 21 249 255 255 255 255 247 12 0 0 0 0 0 0 0 0 0 0 0 0 0 0 0 0 0 0 0 0 0 0 0 0 0 0 0 0 0 0 180 255 255 202 0 0 0 0 0 0 0 0 0 0 0 0 140 255 255 255 255 255 255 157 0 0 0 0 0 0 0 0 0 6 242 255 230 2 2 225 255 243 12 0 0 0 0 0 0 0 0 15 203 255 255 255 255 255 255 254 156 0 0 0 0 0 0 32 250 255 191 220 255 197 0 0 180 255 254 59 0 0 0 
0 0 0 0 0 0 0 0 0 0 0 0 0 0 0 0 0 0 0 0 0 0 0 0 0 0 0 0 0 0 0 0 0 0 0 0 0 0 0 0 0 0 0 0 0 0 0 0 0 0 0 0 0 0 0 4 202 228 222 222 222 222 222 222 222 222 222 222 226 215 15 0 0 99 255 255 205 109 105 168 230 255 255 255 255 255 254 148 0 0 0 0 0 0 0 0 82 241 255 255 249 114 0 0 0 0 0 0 0 0 0 0 0 0 101 247 255 255 244 96 0 0 0 0 0 0 0 61 141 148 148 148 148 148 148 148 148 148 148 148 148 154 72 0 0 0 0 0 0 0 0 180 255 255 202 0 0 0 0 0 0 0 0 0 0 0 107 255 255 255 136 107 255 255 255 125 0 0 0 0 101 124 124 116 161 255 255 225 107 140 252 255 243 109 124 124 81 0 0 0 0 0 0 0 24 137 220 255 255 255 255 255 165 0 0 0 0 0 32 250 255 191 220 255 219 0 0 173 255 254 59 0 0 0 
0 0 0 0 0 0 0 0 0 0 0 0 0 0 0 0 0 0 0 0 0 0 0 0 0 0 0 0 0 0 0 0 0 0 0 0 0 0 0 0 0 0 0 0 0 0 0 0 0 0 0 0 0 0 0 43 251 255 255 255 255 255 255 255 255 255 255 255 255 254 62 0 0 13 110 48 0 0 0 0 0 39 112 155 163 125 10 0 0 0 0 0 0 0 0 0 0 0 29 31 0 0 0 0 0 0 0 0 0 0 0 0 0 0 0 0 40 31 0 0 0 0 0 0 0 0 2 228 255 255 255 255 255 255 255 255 255 255 255 255 255 255 239 6 0 0 0 0 0 0 0 186 255 255 202 0 0 0 0 0 0 0 0 0 0 0 180 255 255 234 6 2 220 255 255 203 0 0 0 43 252 255 255 255 255 255 255 255 255 255 255 255 255 255 255 255 250 12 0 0 0 0 0 0 0 0 0 26 172 255 255 255 252 34 0 0 0 0 2 230 255 190 208 255 255 195 124 244 255 254 73 0 0 0 
0 0 0 0 0 0 0 0 0 0 0 0 0 0 0 0 0 0 0 0 0 0 0 0 0 0 0 0 0 0 0 0 0 0 0 0 0 0 0 0 0 0 0 0 0 0 0 0 0 0 0 0 0 0 0 43 252 255 255 255 255 255 255 255 255 255 255 255 255 254 62 0 0 0 0 0 0 0 0 0 0 0 0 0 0 0 0 0 0 0 0 0 0 0 0 0 0 0 0 0 0 0 0 0 0 0 0 0 0 0 0 0 0 0 0 0 0 0 0 0 0 0 0 0 0 0 2 218 255 255 255 255 255 255 255 255 255 255 255 255 255 255 229 2 0 0 0 0 0 0 0 114 255 255 136 0 0 0 0 0 0 0 0 0 0 0 2 176 254 89 0 0 61 251 189 6 0 0 0 19 237 245 244 252 255 255 254 244 249 255 255 254 244 244 244 249 212 6 0 0 15 186 214 43 0 0 0 0 0 81 254 255 254 62 0 0 0 0 2 229 255 214 87 255 255 255 255 255 255 255 197 0 0 0 
0 0 0 0 0 0 0 0 0 0 0 0 0 0 0 0 0 0 0 0 0 0 0 0 0 119 189 189 134 2 0 0 0 0 0 0 0 0 0 0 0 0 0 109 149 148 148 148 22 0 0 0 0 0 0 2 178 204 203 203 203 203 203 203 203 203 203 203 203 185 6 0 0 0 0 0 0 0 0 0 0 0 0 0 0 0 0 0 0 0 0 0 0 0 0 0 0 119 189 189 134 2 0 0 0 0 0 0 0 0 0 0 0 0 0 0 0 0 0 0 0 0 0 0 0 0 0 26 103 96 96 96 96 96 96 96 96 96 96 96 96 103 34 0 0 0 0 0 0 0 0 0 51 65 0 0 0 0 0 0 0 0 0 0 0 0 0 0 0 0 0 0 0 0 0 0 0 0 0 0 0 0 0 114 255 255 142 0 70 255 255 176 0 0 0 0 0 0 0 0 115 255 255 207 0 0 0 0 0 8 248 255 254 62 0 0 0 0 2 230 255 252 19 116 251 255 255 244 255 255 150 0 0 0 
0 0 0 0 0 0 0 0 0 0 0 0 0 0 0 0 0 0 0 0 0 0 0 0 200 255 255 255 255 212 2 0 0 0 0 0 0 0 0 0 0 0 21 250 255 255 255 254 65 0 0 0 0 0 0 0 0 0 0 0 0 0 0 0 0 0 0 0 0 0 0 0 0 0 0 0 0 0 0 0 0 0 0 0 0 0 0 0 0 0 0 0 0 0 0 0 200 255 255 255 255 212 2 0 0 0 0 0 0 0 0 0 0 0 6 232 245 244 244 229 10 0 0 0 0 0 0 0 0 0 0 0 0 0 0 0 0 0 0 0 0 0 0 0 0 0 0 0 0 0 39 205 244 244 216 43 0 0 0 0 0 0 0 0 0 0 0 0 0 0 0 0 0 0 0 0 0 0 0 0 0 0 0 211 255 252 34 0 180 255 254 73 0 0 0 0 0 0 0 0 109 255 255 255 156 2 0 0 0 162 255 255 253 48 0 0 0 0 0 180 255 254 94 0 0 29 13 0 51 77 0 0 0 0 
0 0 0 0 0 0 0 0 0 0 0 0 0 0 0 0 0 0 0 0 0 0 0 31 250 255 255 255 255 254 62 0 0 0 0 0 0 0 0 0 0 0 99 255 255 255 255 230 6 0 0 0 0 0 0 0 0 0 0 0 0 0 0 0 0 0 0 0 0 0 0 0 0 0 0 0 0 0 0 0 0 0 0 0 0 0 0 0 0 0 0 0 0 0 0 31 250 255 255 255 255 254 62 0 0 0 0 0 0 0 0 0 0 0 89 255 255 255 255 212 0 0 0 0 0 0 0 0 0 0 0 0 0 0 0 0 0 0 0 0 0 0 0 0 0 0 0 0 0 2 223 255 255 255 255 234 6 0 0 0 0 0 0 0 0 0 0 0 0 0 0 0 0 0 0 0 0 0 0 0 0 0 32 250 255 207 0 6 242 255 233 6 0 0 0 0 0 0 0 0 109 255 255 255 255 254 218 197 238 255 255 255 214 0 0 0 0 0 0 89 255 255 197 0 0 0 0 0 0 0 0 0 0 0 
0 0 0 0 0 0 0 0 0 0 0 0 0 0 0 0 0 0 0 0 0 0 0 29 249 255 255 255 255 254 62 0 0 0 0 0 0 0 0 0 0 0 173 255 255 255 255 111 0 0 0 0 0 0 0 0 0 0 0 0 0 0 0 0 0 0 0 0 0 0 0 0 0 0 0 0 0 0 0 0 0 0 0 0 0 0 0 0 0 0 0 0 0 0 0 29 249 255 255 255 255 254 62 0 0 0 0 0 0 0 0 0 0 0 161 255 255 255 254 81 0 0 0 0 0 0 0 0 0 0 0 0 0 0 0 0 0 0 0 0 0 0 0 0 0 0 0 0 0 6 242 255 255 255 255 254 62 0 0 0 0 0 0 0 0 0 0 0 0 0 0 0 0 0 0 0 0 0 0 0 0 0 140 255 255 111 0 99 255 255 157 0 0 0 0 0 0 0 0 0 107 255 255 255 255 255 255 255 255 255 255 234 19 0 0 0 0 0 0 6 242 255 254 119 0 0 0 0 0 0 0 0 0 0 
0 0 0 0 0 0 0 0 0 0 0 0 0 0 0 0 0 0 0 0 0 0 0 21 249 255 255 255 255 252 34 0 0 0 0 0 0 0 0 0 0 2 223 255 255 255 234 6 0 0 0 0 0 0 0 0 0 0 0 0 0 0 0 0 0 0 0 0 0 0 0 0 0 0 0 0 0 0 0 0 0 0 0 0 0 0 0 0 0 0 0 0 0 0 0 21 249 255 255 255 255 252 34 0 0 0 0 0 0 0 0 0 0 2 218 255 255 255 214 0 0 0 0 0 0 0 0 0 0 0 0 0 0 0 0 0 0 0 0 0 0 0 0 0 0 0 0 0 0 4 235 255 255 255 255 252 19 0 0 0 0 0 0 0 0 0 0 0 0 0 0 0 0 0 0 0 0 0 0 0 0 2 223 255 247 15 0 193 255 253 48 0 0 0 0 0 0 0 0 0 2 158 183 117 212 254 255 255 250 229 138 0 0 0 0 0 0 0 0 0 148 255 255 254 125 0 0 90 161 82 0 0 0 0 
0 0 0 0 0 0 0 0 0 0 0 0 0 0 0 0 0 0 0 0 0 0 0 0 109 252 255 255 254 140 0 0 0 0 0 0 0 0 0 0 0 31 250 255 255 255 129 0 0 0 0 0 0 0 0 0 0 0 0 0 0 0 0 0 0 0 0 0 0 0 0 0 0 0 0 0 0 0 0 0 0 0 0 0 0 0 0 0 0 0 0 0 0 0 0 0 109 252 255 255 254 140 0 0 0 0 0 0 0 0 0 0 0 21 249 255 255 254 92 0 0 0 0 0 0 0 0 0 0 0 0 0 0 0 0 0 0 0 0 0 0 0 0 0 0 0 0 0 0 0 124 255 255 255 255 156 0 0 0 0 0 0 0 0 0 0 0 0 0 0 0 0 0 0 0 0 0 0 0 0 0 42 251 255 189 0 21 248 255 219 0 0 0 0 0 0 0 0 0 0 0 0 0 0 2 229 255 243 10 0 0 0 0 0 0 0 0 0 0 0 2 214 255 255 255 246 254 255 255 215 0 0 0 0 
0 0 0 0 0 0 0 0 0 0 0 0 0 0 0 0 0 0 0 0 0 0 0 0 0 2 65 65 6 0 0 0 0 0 0 0 0 0 0 0 0 99 255 255 255 239 10 0 0 0 0 0 0 0 0 0 0 0 0 0 0 0 0 0 0 0 0 0 0 0 0 0 0 0 0 0 0 0 0 0 0 0 0 0 0 0 0 0 0 0 0 0 0 0 0 0 0 2 65 65 6 0 0 0 0 0 0 0 0 0 0 0 0 90 255 255 255 225 2 0 0 0 0 0 0 0 0 0 0 0 0 0 0 0 0 0 0 0 0 0 0 0 0 0 0 0 0 0 0 0 0 36 113 114 48 0 0 0 0 0 0 0 0 0 0 0 0 0 0 0 0 0 0 0 0 0 0 0 0 0 0 31 251 254 81 0 19 247 255 127 0 0 0 0 0 0 0 0 0 0 0 0 0 0 2 230 255 243 12 0 0 0 0 0 0 0 0 0 0 0 0 4 202 255 255 255 255 255 254 133 0 0 0 0 
0 0 0 0 0 0 0 0 0 0 0 0 0 0 0 0 0 0 0 0 0 0 0 0 0 0 0 0 0 0 0 0 0 0 0 0 0 0 0 0 0 175 255 255 255 137 0 0 0 0 0 0 0 0 0 0 0 0 0 0 0 0 0 0 0 0 0 0 0 0 0 0 0 0 0 0 0 0 0 0 0 0 0 0 0 0 0 0 0 0 0 0 0 0 0 0 0 0 0 0 0 0 0 0 0 0 0 0 0 0 0 0 0 166 255 255 255 103 0 0 0 0 0 0 0 0 0 0 0 0 0 0 0 0 0 0 0 0 0 0 0 0 0 0 0 0 0 0 0 0 0 0 0 0 0 0 0 0 0 0 0 0 0 0 0 0 0 0 0 0 0 0 0 0 0 0 0 0 0 0 0 0 39 43 0 0 0 13 52 0 0 0 0 0 0 0 0 0 0 0 0 0 0 0 2 229 255 208 0 0 0 0 0 0 0 0 0 0 0 0 0 0 0 59 154 177 176 143 34 0 0 0 0 0 
0 0 0 0 0 0 0 0 0 0 0 0 0 0 0 0 0 0 0 0 0 0 0 0 0 0 0 0 0 0 0 0 0 0 0 0 0 0 0 0 2 229 255 255 243 12 0 0 0 0 0 0 0 0 0 0 0 0 0 0 0 0 0 0 0 0 0 0 0 0 0 0 0 0 0 0 0 0 0 0 0 0 0 0 0 0 0 0 0 0 0 0 0 0 0 0 0 0 0 0 0 0 0 0 0 0 0 0 0 0 0 0 2 223 255 255 230 2 0 0 0 0 0 0 0 0 0 0 0 0 0 0 0 0 0 0 0 0 0 0 0 0 0 0 0 0 0 0 0 0 0 0 0 0 0 0 0 0 0 0 0 0 0 0 0 0 0 0 0 0 0 0 0 0 0 0 0 0 0 0 0 0 0 0 0 0 0 0 0 0 0 0 0 0 0 0 0 0 0 0 0 0 0 0 2 234 255 207 0 0 0 0 0 0 0 0 0 0 0 0 0 0 0 0 0 0 0 0 0 0 0 0 0 0 
0 0 0 0 0 0 0 0 0 0 0 0 0 0 0 0 0 0 0 0 0 0 0 0 0 0 0 0 0 0 0 0 0 0 0 0 0 0 0 0 2 239 255 255 150 0 0 0 0 0 0 0 0 0 0 0 0 0 0 0 0 0 0 0 0 0 0 0 0 0 0 0 0 0 0 0 0 0 0 0 0 0 0 0 0 0 0 0 0 0 0 0 0 0 0 0 0 0 0 0 0 0 0 0 0 0 0 0 0 0 0 0 2 239 255 255 111 0 0 0 0 0 0 0 0 0 0 0 0 0 0 0 0 0 0 0 0 0 0 0 0 0 0 0 0 0 0 0 0 0 0 0 0 0 0 0 0 0 0 0 0 0 0 0 0 0 0 0 0 0 0 0 0 0 0 0 0 0 0 0 0 0 0 0 0 0 0 0 0 0 0 0 0 0 0 0 0 0 0 0 0 0 0 0 0 156 209 104 0 0 0 0 0 0 0 0 0 0 0 0 0 0 0 0 0 0 0 0 0 0 0 0 0 0 
0 0 0 0 0 0 0 0 0 0 0 0 0 0 0 0 0 0 0 0 0 0 0 0 0 0 0 0 0 0 0 0 0 0 0 0 0 0 0 0 0 61 193 203 12 0 0 0 0 0 0 0 0 0 0 0 0 0 0 0 0 0 0 0 0 0 0 0 0 0 0 0 0 0 0 0 0 0 0 0 0 0 0 0 0 0 0 0 0 0 0 0 0 0 0 0 0 0 0 0 0 0 0 0 0 0 0 0 0 0 0 0 0 82 195 184 2 0 0 0 0 0 0 0 0 0 0 0 0 0 0 0 0 0 0 0 0 0 0 0 0 0 0 0 0 0 0 0 0 0 0 0 0 0 0 0 0 0 0 0 0 0 0 0 0 0 0 0 0 0 0 0 0 0 0 0 0 0 0 0 0 0 0 0 0 0 0 0 0 0 0 0 0 0 0 0 0 0 0 0 0 0 0 0 0 0 0 0 0 0 0 0 0 0 0 0 0 0 0 0 0 0 0 0 0 0 0 0 0 0 0 0 0 0 
0 0 0 0 0 0 0 0 0 0 0 0 0 0 0 0 0 0 0 0 0 0 0 0 0 0 0 0 0 0 0 0 0 0 0 0 0 0 0 0 0 0 0 0 0 0 0 0 0 0 0 0 0 0 0 0 0 0 0 0 0 0 0 0 0 0 0 0 0 0 0 0 0 0 0 0 0 0 0 0 0 0 0 0 0 0 0 0 0 0 0 0 0 0 0 0 0 0 0 0 0 0 0 0 0 0 0 0 0 0 0 0 0 0 0 0 0 0 0 0 0 0 0 0 0 0 0 0 0 0 0 0 0 0 0 0 0 0 0 0 0 0 0 0 0 0 0 0 0 0 0 0 0 0 0 0 0 0 0 0 0 0 0 0 0 0 0 0 0 0 0 0 0 0 0 0 0 0 0 0 0 0 0 0 0 0 0 0 0 0 0 0 0 0 0 0 0 0 0 0 0 0 0 0 0 0 0 0 0 0 0 0 0 0 0 0 0 0 0 0 0 0 0 0 0 0 0 0 0 0 0 0 0 0 
0 0 0 0 0 0 0 0 0 0 0 0 0 0 0 0 0 0 0 0 0 0 0 0 0 0 0 0 0 0 0 0 0 0 0 0 0 0 0 0 0 0 0 0 0 0 0 0 0 0 0 0 0 0 0 0 0 0 0 0 0 0 0 0 0 0 0 0 0 0 0 0 0 0 0 0 0 0 0 0 0 0 0 0 0 0 0 0 0 0 0 0 0 0 0 0 0 0 0 0 0 0 0 0 0 0 0 0 0 0 0 0 0 0 0 0 0 0 0 0 0 0 0 0 0 0 0 0 0 0 0 0 0 0 0 0 0 0 0 0 0 0 0 0 0 0 0 0 0 0 0 0 0 0 0 0 0 0 0 0 0 0 0 0 0 0 0 0 0 0 0 0 0 0 0 0 0 0 0 0 0 0 0 0 0 0 0 0 0 0 0 0 0 0 0 0 0 0 0 0 0 0 0 0 0 0 0 0 0 0 0 0 0 0 0 0 0 0 0 0 0 0 0 0 0 0 0 0 0 0 0 0 0 0 
0 0 0 0 0 0 0 0 0 0 0 0 0 0 0 0 0 0 0 0 0 0 0 0 0 0 0 0 0 0 0 0 0 0 0 0 0 0 0 0 0 0 0 0 0 0 0 0 0 0 0 0 0 0 0 0 0 0 0 0 0 0 0 0 0 0 0 0 0 0 0 0 0 0 0 0 0 0 0 0 0 0 0 0 0 0 0 0 0 0 0 0 0 0 0 0 0 0 0 0 0 0 0 0 0 0 0 0 0 0 0 0 0 0 0 0 0 0 0 0 0 0 0 0 0 0 0 0 0 0 0 0 0 0 0 0 0 0 0 0 0 0 0 0 0 0 0 0 0 0 0 0 0 0 0 0 0 0 0 0 0 0 0 0 0 0 0 0 0 0 0 0 0 0 0 0 0 0 0 0 0 0 0 0 0 0 0 0 0 0 0 0 0 0 0 0 0 0 0 0 0 0 0 0 0 0 0 0 0 0 0 0 0 0 0 0 0 0 0 0 0 0 0 0 0 0 0 0 0 0 0 0 0 0 
