P2
3 4
2
2 0 0
1 2 0
2 0 0
1 1 0
